<?xml version="1.0" encoding="utf-8"?>
<!-- Generator: Adobe Illustrator 21.0.2, SVG Export Plug-In . SVG Version: 6.00 Build 0)  -->
<svg version="1.1" id="Capa_1" xmlns="http://www.w3.org/2000/svg" xmlns:xlink="http://www.w3.org/1999/xlink" x="0px" y="0px"
	 viewBox="0 0 357.4 347.2" style="enable-background:new 0 0 357.4 347.2;" xml:space="preserve">
<style type="text/css">
	.st0{fill:#FFFFFF;}
</style>
<path class="st0" d="M3.7,166.7c0.9-6.4,1.6-12.8,2.7-19.2c4-25.1,13.7-47.9,28-68.8C56.1,47.1,85.2,25,121.2,12.1
	c24.4-8.7,49.7-11.2,75.5-8.8c32.2,3,61.1,14.4,86.9,33.6c31.4,23.4,52.7,54,63.9,91.5c7.2,24.1,8.7,48.7,5.3,73.5
	c-6.8,49-31.2,87.8-70.1,117.6c-14.1,10.8-30.1,18.5-46.9,24.3c-7.7,2.6-13-1.1-13-9.2c-0.1-15.2,0-30.4,0-45.6
	c0-7.6-0.4-15.1-3.7-22.1c-1.9-4.1-4.6-7.8-7-11.7c6.4-1.2,13.4-2.1,20.1-3.8c17.9-4.6,33.9-12.5,44.7-28.2
	c7.9-11.4,11.5-24.5,13.1-38.1c1.2-10.3,1.6-20.7-0.4-31c-2.2-11.5-7.2-21.6-14.8-30.4c-1.4-1.6-1.6-2.9-0.9-4.8
	c5-14.4,3.1-28.5-2.3-42.4c-0.3-0.9-1.8-1.7-2.8-1.8c-6.1-0.9-11.9,0.9-17.2,3.4c-8.8,4.2-17.4,9-26.2,13.3
	c-1.6,0.8-3.7,1.3-5.4,0.9c-27.3-6.8-54.6-6.8-82,0c-1.6,0.4-3.9,0-5.3-1c-11.1-7.1-22.9-12.7-35.7-16.1c-0.2-0.1-0.4-0.1-0.7-0.2
	c-8.2-1.7-9.6-0.8-12,7.2c-3.6,12.5-4.3,24.9,0.1,37.3c0.4,1,0,2.8-0.7,3.5c-14.7,16.7-18.1,36.5-16,57.9
	c1.2,12.5,4.1,24.5,9.7,35.7c7.9,15.9,21.3,25.6,37.4,31.2c9.6,3.3,19.9,4.7,29.9,7c0.5,0.1,1.1,0.2,1.2,0.2
	c-2.6,4.6-5.2,9.2-7.6,13.9c-0.8,1.6-1.4,3.5-1.5,5.2c-0.1,3.7-2.1,5.4-5.4,6.3c-11.1,3-22.1,4.9-32.8-1.6c-5.6-3.4-9.7-8.2-13-13.8
	c-5.1-8.6-12.1-14.9-21.7-17.7c-3.5-1-7.6-0.8-11.4-0.5c-2.3,0.1-3.1,2-1.5,4c1.6,1.9,3.1,4.2,5.2,5.4c9.4,5.5,14.7,14.1,18.9,23.6
	c2.4,5.4,4.7,10.9,9.3,15c7.4,6.6,16.3,9.1,25.8,9.5c8.3,0.4,16.5,0.1,25.4,0.1c0,5,0,10.8,0,16.6c0,4.5,0.2,8.9,0.2,13.4
	c0,8.2-5.4,12.2-13.2,9.5c-25.9-8.8-48.7-22.7-67.9-42.4c-18.5-19-32.7-40.9-41.5-66.2c-5-14.3-7.8-29-9-44.1
	c-0.1-1.3-0.4-2.7-0.5-4C3.7,180.4,3.7,173.6,3.7,166.7z"/>
</svg>
